<svg width="32" height="32" viewBox="0 0 32 32" fill="none" xmlns="http://www.w3.org/2000/svg">
<g clip-path="url(#clip0_9280_12373)">
<path d="M2.05805 29.3333H13.3333M-116 514.667H-101.409" stroke="#3A3A3A" stroke-width="2" stroke-linecap="round" stroke-linejoin="round"/>
<path d="M51.3914 29.3333H62.6666M-66.6667 514.667H-52.0752" stroke="#3A3A3A" stroke-width="1.5" stroke-linecap="round" stroke-linejoin="round"/>
<path d="M10.8607 15.0351C10.4935 14.6029 10.5461 13.9549 10.9782 13.5877C11.4104 13.2205 12.0584 13.2732 12.4256 13.7053L18.4537 20.7995L16.8888 22.1293L10.8607 15.0351Z" fill="#3A3A3A"/>
<path d="M7.38853 12.4423L13.3326 7.70658L19.7828 2.56765C20.6408 1.88406 21.8893 2.01922 22.5812 2.87059L28.4112 10.045C29.2867 11.1223 29.1168 12.7066 28.0328 13.5738L23.3333 17.3334L27.7601 22.2284C28.4707 23.0141 28.3709 24.2364 27.5424 24.8965C26.7553 25.5236 25.6101 25.4004 24.9744 24.6202L20.6666 19.3334L16.5428 22.999C15.5079 23.9189 13.9223 23.8224 13.0066 22.7837L7.07104 16.0509C6.12565 14.9785 6.27041 13.3332 7.38853 12.4423Z" stroke="#3A3A3A" stroke-width="2"/>
</g>
<defs>
<clipPath id="clip0_9280_12373">
<rect width="32" height="32" fill="white"/>
</clipPath>
</defs>
</svg>
