<svg width="18" height="19" viewBox="0 0 18 19" fill="none" xmlns="http://www.w3.org/2000/svg">
<path d="M0.666687 1.16675H2.11669C3.01669 1.16675 3.72502 1.94175 3.65002 2.83341L2.95835 11.1334C2.93135 11.455 2.97143 11.7786 3.07605 12.0839C3.18067 12.3891 3.34756 12.6693 3.56614 12.9067C3.78471 13.1441 4.05021 13.3335 4.34581 13.4629C4.64141 13.5923 4.96067 13.6589 5.28335 13.6584H14.1584C15.3584 13.6584 16.4084 12.6751 16.5 11.4834L16.95 5.23342C17.05 3.85008 16 2.72508 14.6084 2.72508H3.85002M6.50002 6.16675H16.5M12.5417 17.8334C12.818 17.8334 13.0829 17.7237 13.2783 17.5283C13.4736 17.333 13.5834 17.068 13.5834 16.7917C13.5834 16.5155 13.4736 16.2505 13.2783 16.0552C13.0829 15.8598 12.818 15.7501 12.5417 15.7501C12.2654 15.7501 12.0005 15.8598 11.8051 16.0552C11.6098 16.2505 11.5 16.5155 11.5 16.7917C11.5 17.068 11.6098 17.333 11.8051 17.5283C12.0005 17.7237 12.2654 17.8334 12.5417 17.8334ZM5.87502 17.8334C6.15129 17.8334 6.41624 17.7237 6.61159 17.5283C6.80694 17.333 6.91669 17.068 6.91669 16.7917C6.91669 16.5155 6.80694 16.2505 6.61159 16.0552C6.41624 15.8598 6.15129 15.7501 5.87502 15.7501C5.59875 15.7501 5.3338 15.8598 5.13845 16.0552C4.9431 16.2505 4.83335 16.5155 4.83335 16.7917C4.83335 17.068 4.9431 17.333 5.13845 17.5283C5.3338 17.7237 5.59875 17.8334 5.87502 17.8334Z" stroke="#595959" stroke-width="1.2" stroke-miterlimit="10" stroke-linecap="round" stroke-linejoin="round"/>
</svg>
