<svg width="20" height="21" viewBox="0 0 20 21" fill="none" xmlns="http://www.w3.org/2000/svg">
<path d="M14.1665 17.7917H5.83317C2.15817 17.7917 1.0415 16.675 1.0415 13V12.5833C1.0415 12.2417 1.32484 11.9583 1.6665 11.9583C2.4665 11.9583 3.12484 11.3 3.12484 10.5C3.12484 9.7 2.4665 9.04167 1.6665 9.04167C1.32484 9.04167 1.0415 8.75833 1.0415 8.41667V8C1.0415 4.325 2.15817 3.20833 5.83317 3.20833H14.1665C17.8415 3.20833 18.9582 4.325 18.9582 8V8.83333C18.9582 9.175 18.6748 9.45833 18.3332 9.45833C17.5332 9.45833 16.8748 10.1167 16.8748 10.9167C16.8748 11.7167 17.5332 12.375 18.3332 12.375C18.6748 12.375 18.9582 12.6583 18.9582 13C18.9582 16.675 17.8415 17.7917 14.1665 17.7917ZM2.2915 13.1333C2.30817 16 2.89984 16.5417 5.83317 16.5417H14.1665C16.9498 16.5417 17.6248 16.05 17.6998 13.55C16.5082 13.2667 15.6248 12.1917 15.6248 10.9167C15.6248 9.64167 16.5165 8.56667 17.7082 8.28333V8C17.7082 5.025 17.1415 4.45833 14.1665 4.45833H5.83317C2.89984 4.45833 2.30817 5 2.2915 7.86667C3.48317 8.15 4.37484 9.225 4.37484 10.5C4.37484 11.775 3.48317 12.85 2.2915 13.1333Z" fill="#F3800E"/>
<path d="M12.4999 13.7333C12.0332 13.7333 11.6582 13.3583 11.6582 12.9C11.6582 12.4417 12.0332 12.0667 12.4915 12.0667C12.9499 12.0667 13.3249 12.4417 13.3249 12.9C13.3249 13.3583 12.9665 13.7333 12.4999 13.7333Z" fill="#F3800E"/>
<path d="M7.49987 9.56667C7.0332 9.56667 6.6582 9.19167 6.6582 8.73333C6.6582 8.275 7.0332 7.9 7.49154 7.9C7.94987 7.9 8.32487 8.275 8.32487 8.73333C8.32487 9.19167 7.96654 9.56667 7.49987 9.56667Z" fill="#F3800E"/>
<path d="M7.19176 14.1917C7.03343 14.1917 6.8751 14.1333 6.7501 14.0083C6.50843 13.7667 6.50843 13.3667 6.7501 13.125L12.3584 7.51667C12.6001 7.275 13.0001 7.275 13.2418 7.51667C13.4834 7.75833 13.4834 8.15833 13.2418 8.4L7.63343 14.0083C7.51676 14.1333 7.3501 14.1917 7.19176 14.1917Z" fill="#F3800E"/>
</svg>
