<svg width="24" height="24" viewBox="0 0 24 24" fill="none" xmlns="http://www.w3.org/2000/svg">
<path d="M10.9284 2.09998L5.99844 9.99998M5.39844 2.09998H18.5984C19.6984 2.09998 20.5984 2.99998 20.5984 4.09998V6.29998C20.5984 7.09998 20.0984 8.09998 19.5984 8.59998L15.2984 12.4C14.6984 12.9 14.2984 13.9 14.2984 14.7V19C14.2984 19.6 13.8984 20.4 13.3984 20.7L11.9984 21.6C10.6984 22.4 8.89844 21.5 8.89844 19.9V14.6C8.89844 13.9 8.49844 13 8.09844 12.5L4.29844 8.49998C3.79844 7.99998 3.39844 7.09998 3.39844 6.49998V4.19998C3.39844 2.99998 4.29844 2.09998 5.39844 2.09998Z" stroke="black" stroke-width="1.5" stroke-miterlimit="10" stroke-linecap="round" stroke-linejoin="round"/>
</svg>
