<svg width="25" height="24" viewBox="0 0 25 24" fill="none" xmlns="http://www.w3.org/2000/svg">
<g clip-path="url(#clip0_832_73038)">
<path d="M24.7881 12C24.7881 5.37258 19.4155 0 12.7881 0C6.16066 0 0.788086 5.37258 0.788086 12C0.788086 17.9895 5.17629 22.954 10.9131 23.8542V15.4688H7.86621V12H10.9131V9.35625C10.9131 6.34875 12.7046 4.6875 15.4457 4.6875C16.7582 4.6875 18.1318 4.92188 18.1318 4.92188V7.875H16.6187C15.1281 7.875 14.6631 8.80008 14.6631 9.75V12H17.9912L17.4592 15.4688H14.6631V23.8542C20.3999 22.954 24.7881 17.9895 24.7881 12Z" fill="#0151F1"/>
<path d="M17.4592 15.4688L17.9912 12H14.6631V9.75C14.6631 8.80102 15.1281 7.875 16.6187 7.875H18.1318V4.92188C18.1318 4.92188 16.7586 4.6875 15.4457 4.6875C12.7046 4.6875 10.9131 6.34875 10.9131 9.35625V12H7.86621V15.4688H10.9131V23.8542C12.1555 24.0486 13.4206 24.0486 14.6631 23.8542V15.4688H17.4592Z" fill="white"/>
</g>
<defs>
<clipPath id="clip0_832_73038">
<rect x="0.788086" width="24" height="24" rx="12" fill="white"/>
</clipPath>
</defs>
</svg>
