<svg width="21" height="20" viewBox="0 0 21 20" fill="none" xmlns="http://www.w3.org/2000/svg">
<g clip-path="url(#clip0_832_73025)">
<path d="M20.6575 10.2297C20.6575 9.54995 20.6024 8.8665 20.4848 8.19775H11.0525V12.0486H16.4539C16.2298 13.2905 15.5096 14.3892 14.455 15.0873V17.586H17.6775C19.5699 15.8443 20.6575 13.2722 20.6575 10.2297Z" fill="#4285F4"/>
<path d="M11.0498 20.0005C13.7468 20.0005 16.0213 19.115 17.6785 17.5864L14.456 15.0878C13.5594 15.6978 12.402 16.0431 11.0535 16.0431C8.44459 16.0431 6.23258 14.2831 5.4389 11.9167H2.11353V14.4925C3.81112 17.8693 7.26877 20.0005 11.0498 20.0005Z" fill="#34A853"/>
<path d="M5.43794 11.9168C5.01905 10.6748 5.01905 9.32995 5.43794 8.08799V5.51221H2.11624C0.697906 8.33785 0.697906 11.6669 2.11624 14.4925L5.43794 11.9168Z" fill="#FBBC04"/>
<path d="M11.0498 3.95756C12.4755 3.93551 13.8534 4.47198 14.8859 5.45673L17.7409 2.60169C15.9331 0.904099 13.5337 -0.0292099 11.0498 0.000185607C7.26877 0.000185607 3.81112 2.13136 2.11353 5.51185L5.43522 8.08764C6.22523 5.71762 8.44092 3.95756 11.0498 3.95756Z" fill="#EA4335"/>
</g>
<defs>
<clipPath id="clip0_832_73025">
<rect width="20" height="20" fill="white" transform="translate(0.850586 -0.000488281)"/>
</clipPath>
</defs>
</svg>
