<svg width="16" height="16" viewBox="0 0 16 16" fill="none" xmlns="http://www.w3.org/2000/svg">
<g clip-path="url(#clip0_9670_2112)">
<path d="M1.69577 14.6667H7.33341M-57.3333 258H-50.0375" stroke="#C22828" stroke-linecap="round" stroke-linejoin="round"/>
<path d="M10.4602 9.45125L11.6628 8.24866L14.598 11.1838C14.9301 11.5159 14.9301 12.0543 14.598 12.3864C14.2659 12.7185 13.7275 12.7185 13.3954 12.3864L10.4602 9.45125Z" fill="#C22828"/>
<path fill-rule="evenodd" clip-rule="evenodd" d="M3.41421 6.59968C2.63316 7.38073 2.63316 8.64706 3.41421 9.42811L5.6662 11.6801C6.44725 12.4611 7.71358 12.4611 8.49463 11.6801L5.13883 8.32429C4.95682 8.14228 4.95682 7.84718 5.13883 7.66517C5.32084 7.48315 5.61595 7.48315 5.79796 7.66517L9.15376 11.021L13.6801 6.49465C14.4611 5.7136 14.4611 4.44727 13.6801 3.66622L11.4281 1.41423C10.647 0.633182 9.38071 0.63318 8.59966 1.41423L3.41421 6.59968Z" fill="#C22828"/>
</g>
<defs>
<clipPath id="clip0_9670_2112">
<rect width="16" height="16" fill="white"/>
</clipPath>
</defs>
</svg>
