<svg width="20" height="18" viewBox="0 0 20 18" fill="none" xmlns="http://www.w3.org/2000/svg">
<path d="M14.44 0.102051C12.63 0.102051 11.01 0.982051 10 2.33205C9.48413 1.64086 8.81426 1.07944 8.04353 0.692345C7.27281 0.305249 6.42247 0.103136 5.56 0.102051C2.49 0.102051 0 2.60205 0 5.69205C0 6.88205 0.19 7.98205 0.52 9.00205C2.1 14.0021 6.97 16.9921 9.38 17.8121C9.72 17.9321 10.28 17.9321 10.62 17.8121C13.03 16.9921 17.9 14.0021 19.48 9.00205C19.81 7.98205 20 6.88205 20 5.69205C20 2.60205 17.51 0.102051 14.44 0.102051Z" fill="black"/>
</svg>
