<svg width="52" height="32" viewBox="0 0 52 32" fill="none" xmlns="http://www.w3.org/2000/svg">
<path d="M24.959 6.46411L24.5521 29.8364L8.5457 25.0017V13.97L6.72803 14.0768V25.9633L24.959 32L44.8992 26.2571V14.1836L42.973 14.2638V25.0017L26.7767 29.7296V6.46411H24.959Z" fill="#292B2E"/>
<path d="M23.9553 0L7.05366 1.6828L0 12.9282H18.3124L23.9553 0Z" fill="#292B2E"/>
<path d="M19.9401 11.2721H20.6183V20.1402C20.6183 21.0751 20.3742 21.823 19.8587 22.4107C19.2347 23.1319 18.3937 23.4791 17.3899 23.4791C16.359 23.4791 15.5451 23.1319 14.9211 22.4107C14.4057 21.823 14.1615 21.0751 14.1615 20.1402V19.419H14.053L12.0454 20.3539C12.0454 21.7696 12.5337 22.9182 13.4833 23.8531C14.4328 24.8681 15.7621 25.3756 17.3628 25.3756C18.9906 25.3756 20.2928 24.8681 21.2966 23.8531C22.2461 22.8915 22.7344 21.636 22.7344 20.1402V9.37561H20.7811L19.9401 11.2721Z" fill="#292B2E"/>
<path d="M27.2378 0L44.3565 1.49583L51.4101 12.5008L31.6599 11.8063L27.2378 0Z" fill="#292B2E"/>
</svg>
