<svg width="20" height="20" viewBox="0 0 20 20" fill="none" xmlns="http://www.w3.org/2000/svg">
<path d="M12.7001 18.5586H12.5918C8.89176 18.5586 7.10843 17.1002 6.80009 13.8336C6.76676 13.4919 7.01676 13.1836 7.36676 13.1502C7.70843 13.1169 8.01676 13.3752 8.05009 13.7169C8.29176 16.3336 9.52509 17.3086 12.6001 17.3086H12.7084C16.1001 17.3086 17.3001 16.1086 17.3001 12.7169V7.28356C17.3001 3.89189 16.1001 2.69189 12.7084 2.69189H12.6001C9.50843 2.69189 8.27509 3.68356 8.05009 6.35023C8.00843 6.69189 7.72509 6.95023 7.36676 6.91689C7.01676 6.89189 6.76676 6.58356 6.79176 6.24189C7.07509 2.92523 8.86676 1.44189 12.5918 1.44189H12.7001C16.7918 1.44189 18.5418 3.19189 18.5418 7.28356V12.7169C18.5418 16.8086 16.7918 18.5586 12.7001 18.5586Z" fill="#3A3A3A"/>
<path d="M12.4001 10.625H1.66675C1.32508 10.625 1.04175 10.3417 1.04175 10C1.04175 9.65833 1.32508 9.375 1.66675 9.375H12.4001C12.7417 9.375 13.0251 9.65833 13.0251 10C13.0251 10.3417 12.7501 10.625 12.4001 10.625Z" fill="#3A3A3A"/>
<path d="M10.5416 13.4167C10.3833 13.4167 10.225 13.3584 10.1 13.2334C9.85828 12.9917 9.85828 12.5917 10.1 12.35L12.45 10L10.1 7.65003C9.85828 7.40837 9.85828 7.00837 10.1 6.7667C10.3416 6.52503 10.7416 6.52503 10.9833 6.7667L13.775 9.55837C14.0166 9.80003 14.0166 10.2 13.775 10.4417L10.9833 13.2334C10.8583 13.3584 10.7 13.4167 10.5416 13.4167Z" fill="#3A3A3A"/>
</svg>
