<svg width="24" height="24" viewBox="0 0 24 24" fill="none" xmlns="http://www.w3.org/2000/svg">
<path d="M3.17188 7.43994L12.0019 12.5499L20.7719 7.46994M12.0019 21.6099V12.5399" stroke="black" stroke-width="1.5" stroke-linecap="round" stroke-linejoin="round"/>
<path d="M9.93062 2.48L4.59063 5.45C3.38063 6.12 2.39062 7.8 2.39062 9.18V14.83C2.39062 16.21 3.38063 17.89 4.59063 18.56L9.93062 21.53C11.0706 22.16 12.9406 22.16 14.0806 21.53L19.4206 18.56C20.6306 17.89 21.6206 16.21 21.6206 14.83V9.18C21.6206 7.8 20.6306 6.12 19.4206 5.45L14.0806 2.48C12.9306 1.84 11.0706 1.84 9.93062 2.48Z" stroke="black" stroke-width="1.5" stroke-linecap="round" stroke-linejoin="round"/>
<path d="M17.0017 13.2401V9.5801L7.51172 4.1001" stroke="black" stroke-width="1.5" stroke-linecap="round" stroke-linejoin="round"/>
</svg>
