<svg width="24" height="24" viewBox="0 0 24 24" fill="none" xmlns="http://www.w3.org/2000/svg">
<path d="M12.1588 10.87C12.0588 10.86 11.9388 10.86 11.8288 10.87C10.681 10.831 9.59339 10.3468 8.79638 9.51995C7.99937 8.69307 7.55549 7.58844 7.55875 6.43999C7.55875 3.98999 9.53875 1.99999 11.9988 1.99999C12.5812 1.98948 13.1599 2.0938 13.702 2.30697C14.2441 2.52014 14.7389 2.838 15.1582 3.2424C15.5775 3.6468 15.913 4.12982 16.1455 4.66388C16.3781 5.19794 16.5032 5.77258 16.5138 6.35499C16.5243 6.9374 16.4199 7.51618 16.2068 8.05828C15.9936 8.60038 15.6757 9.09518 15.2713 9.51444C14.8669 9.9337 14.3839 10.2692 13.8499 10.5018C13.3158 10.7344 12.7412 10.8595 12.1588 10.87ZM7.15875 14.56C4.73875 16.18 4.73875 18.82 7.15875 20.43C9.90875 22.27 14.4188 22.27 17.1688 20.43C19.5888 18.81 19.5888 16.17 17.1688 14.56C14.4288 12.73 9.91875 12.73 7.15875 14.56Z" stroke="black" stroke-width="1.5" stroke-linecap="round" stroke-linejoin="round"/>
</svg>
