<svg width="24" height="24" viewBox="0 0 24 24" fill="none" xmlns="http://www.w3.org/2000/svg">
<path d="M3.01001 11.2202V15.7102C3.01001 20.2002 4.81001 22.0002 9.30001 22.0002H14.69C19.18 22.0002 20.98 20.2002 20.98 15.7102V11.2202" stroke="#3A3A3A" stroke-width="1.2" stroke-linecap="round" stroke-linejoin="round"/>
<path d="M12 12C13.83 12 15.18 10.51 15 8.68L14.34 2H9.66999L8.99999 8.68C8.81999 10.51 10.17 12 12 12Z" stroke="#3A3A3A" stroke-width="1.2" stroke-linecap="round" stroke-linejoin="round"/>
<path d="M18.3099 12C20.3299 12 21.8099 10.36 21.6099 8.35L21.3299 5.6C20.9699 3 19.9699 2 17.3499 2H14.2999L14.9999 9.01C15.1699 10.66 16.6599 12 18.3099 12ZM5.63988 12C7.28988 12 8.77988 10.66 8.93988 9.01L9.15988 6.8L9.63988 2H6.58988C3.96988 2 2.96988 3 2.60988 5.6L2.33988 8.35C2.13988 10.36 3.61988 12 5.63988 12ZM11.9999 17C10.3299 17 9.49988 17.83 9.49988 19.5V22H14.4999V19.5C14.4999 17.83 13.6699 17 11.9999 17Z" stroke="#3A3A3A" stroke-width="1.2" stroke-linecap="round" stroke-linejoin="round"/>
</svg>
