<svg width="20" height="20" viewBox="0 0 20 20" fill="none" xmlns="http://www.w3.org/2000/svg">
<path d="M16.2501 10.4168C16.2501 9.86429 16.4696 9.33439 16.8603 8.94369C17.251 8.55299 17.7809 8.3335 18.3334 8.3335V7.50016C18.3334 4.16683 17.5001 3.3335 14.1667 3.3335H5.83341C2.50008 3.3335 1.66675 4.16683 1.66675 7.50016V7.91683C2.21928 7.91683 2.74919 8.13632 3.13989 8.52702C3.53059 8.91772 3.75008 9.44763 3.75008 10.0002C3.75008 10.5527 3.53059 11.0826 3.13989 11.4733C2.74919 11.864 2.21928 12.0835 1.66675 12.0835V12.5002C1.66675 15.8335 2.50008 16.6668 5.83341 16.6668H14.1667C17.5001 16.6668 18.3334 15.8335 18.3334 12.5002C17.7809 12.5002 17.251 12.2807 16.8603 11.89C16.4696 11.4993 16.2501 10.9694 16.2501 10.4168Z" stroke="#3A3A3A" stroke-width="1.25" stroke-linecap="round" stroke-linejoin="round"/>
<path d="M8.33325 3.3335V16.6668" stroke="#3A3A3A" stroke-width="1.25" stroke-linecap="round" stroke-linejoin="round" stroke-dasharray="5 5"/>
</svg>
