<svg width="20" height="21" viewBox="0 0 20 21" fill="none" xmlns="http://www.w3.org/2000/svg">
<path d="M17.5 5.48335C14.725 5.20835 11.9333 5.06669 9.15 5.06669C7.5 5.06669 5.85 5.15002 4.2 5.31669L2.5 5.48335M7.08333 4.64169L7.26667 3.55002C7.4 2.75835 7.5 2.16669 8.90833 2.16669H11.0917C12.5 2.16669 12.6083 2.79169 12.7333 3.55835L12.9167 4.64169M15.7083 8.11669L15.1667 16.5084C15.075 17.8167 15 18.8334 12.675 18.8334H7.325C5 18.8334 4.925 17.8167 4.83333 16.5084L4.29167 8.11669M8.60833 14.25H11.3833M7.91667 10.9167H12.0833" stroke="#949494" stroke-width="1.25" stroke-linecap="round" stroke-linejoin="round"/>
</svg>
