<svg width="20" height="20" viewBox="0 0 20 20" fill="none" xmlns="http://www.w3.org/2000/svg">
<g clip-path="url(#clip0_7143_81188)">
<path d="M5.41663 18.3335H14.5833M7.91663 11.6668H12.0833M-68.75 321.667H-59.5833M13.9166 15.8168H6.0833C5.7333 15.8168 5.34164 15.5418 5.22497 15.2085L1.77496 5.55846C1.2833 4.17513 1.8583 3.75013 3.04163 4.60013L6.29163 6.92513C6.8333 7.30013 7.44997 7.10846 7.6833 6.50013L9.14997 2.5918C9.61664 1.3418 10.3916 1.3418 10.8583 2.5918L12.325 6.50013C12.5583 7.10846 13.175 7.30013 13.7083 6.92513L16.7583 4.75013C18.0583 3.8168 18.6833 4.2918 18.15 5.80013L14.7833 15.2251C14.6583 15.5418 14.2666 15.8168 13.9166 15.8168Z" stroke="#3A3A3A" stroke-width="1.2" stroke-linecap="round" stroke-linejoin="round"/>
</g>
<defs>
<clipPath id="clip0_7143_81188">
<rect width="20" height="20" fill="white"/>
</clipPath>
</defs>
</svg>
