<svg width="24" height="24" viewBox="0 0 24 24" fill="none" xmlns="http://www.w3.org/2000/svg">
<path d="M3.16992 7.43994L11.9999 12.5499L20.7699 7.46994M11.9999 21.6099V12.5399" stroke="#3A3A3A" stroke-width="1.5" stroke-linecap="round" stroke-linejoin="round"/>
<path d="M21.6099 9.17V14.83C21.6099 14.88 21.6099 14.92 21.5999 14.97C20.8999 14.36 19.9999 14 18.9999 14C18.0599 14 17.1899 14.33 16.4999 14.88C16.0305 15.253 15.6517 15.7275 15.3919 16.2679C15.1321 16.8083 14.9981 17.4004 14.9999 18C14.9999 18.75 15.2099 19.46 15.5799 20.06C15.6699 20.22 15.7799 20.37 15.8999 20.51L14.0699 21.52C12.9299 22.16 11.0699 22.16 9.92989 21.52L4.58989 18.56C3.37989 17.89 2.38989 16.21 2.38989 14.83V9.17C2.38989 7.79 3.37989 6.11 4.58989 5.44L9.92989 2.48C11.0699 1.84 12.9299 1.84 14.0699 2.48L19.4099 5.44C20.6199 6.11 21.6099 7.79 21.6099 9.17Z" stroke="#3A3A3A" stroke-width="1.5" stroke-linecap="round" stroke-linejoin="round"/>
<path d="M23 18.0001C23 19.2001 22.47 20.2701 21.64 21.0001C20.9108 21.6432 19.9723 21.9987 19 22.0001C16.79 22.0001 15 20.2101 15 18.0001C15 16.7401 15.58 15.6101 16.5 14.8801C17.088 14.4088 17.7972 14.1132 18.5458 14.0275C19.2945 13.9417 20.0521 14.0692 20.7315 14.3953C21.4108 14.7214 21.9842 15.2328 22.3856 15.8705C22.7869 16.5083 22.9999 17.2465 23 18.0001Z" stroke="#3A3A3A" stroke-width="1.5" stroke-miterlimit="10" stroke-linecap="round" stroke-linejoin="round"/>
<path d="M19.25 16.75V18.25L18 19" stroke="#3A3A3A" stroke-width="1.5" stroke-miterlimit="10" stroke-linecap="round" stroke-linejoin="round"/>
</svg>
