<svg width="20" height="21" viewBox="0 0 20 21" fill="none" xmlns="http://www.w3.org/2000/svg">
<path d="M15.0334 11.7916C14.6834 12.1333 14.4834 12.625 14.5334 13.15C14.6084 14.05 15.4334 14.7083 16.3334 14.7083H17.9167V15.7C17.9167 17.425 16.5084 18.8333 14.7834 18.8333H5.21671C3.49171 18.8333 2.08337 17.425 2.08337 15.7V10.0916C2.08337 8.36665 3.49171 6.95831 5.21671 6.95831H14.7834C16.5084 6.95831 17.9167 8.36665 17.9167 10.0916V11.2916H16.2334C15.7667 11.2916 15.3417 11.475 15.0334 11.7916Z" stroke="#6C6C6C" stroke-width="1.5" stroke-linecap="round" stroke-linejoin="round"/>
<path d="M2.08337 10.8416V7.03331C2.08337 6.04165 2.69171 5.15831 3.61671 4.80831L10.2334 2.30831C10.4731 2.21797 10.7312 2.18715 10.9855 2.2185C11.2397 2.24986 11.4826 2.34244 11.6932 2.48832C11.9038 2.63419 12.0759 2.82899 12.1947 3.056C12.3134 3.28301 12.3753 3.53545 12.375 3.79165V6.95831M5.83337 10.5H11.6667M18.7992 12.1416V13.8583C18.7992 14.3166 18.4325 14.6916 17.9659 14.7083H16.3325C15.4325 14.7083 14.6075 14.05 14.5325 13.15C14.4825 12.625 14.6825 12.1333 15.0325 11.7916C15.3409 11.475 15.7659 11.2916 16.2325 11.2916H17.9659C18.4325 11.3083 18.7992 11.6833 18.7992 12.1416Z" stroke="#6C6C6C" stroke-width="1.5" stroke-linecap="round" stroke-linejoin="round"/>
</svg>
