<svg width="288" height="56" viewBox="0 0 288 56" fill="none" xmlns="http://www.w3.org/2000/svg">
<g clip-path="url(#clip0_832_73077)">
<path d="M43.2091 11.3394L42.5128 52.1991L14.9142 43.7737V24.4525L11.8125 24.6425V45.4842L43.2091 56L77.5174 45.9909V24.8326L74.2258 24.9593V43.7737L46.3107 52.0724V11.3394H43.2091Z" fill="#F7911E"/>
<path d="M41.4998 0L12.382 2.97738L0.228516 22.6154H31.815L41.4998 0Z" fill="#F7911E"/>
<path d="M34.537 19.7013H35.6763V35.2217C35.6763 36.8688 35.2333 38.1991 34.3471 39.2127C33.271 40.4796 31.8151 41.1131 30.106 41.1131C28.3336 41.1131 26.941 40.4796 25.8649 39.2127C24.9787 38.1991 24.5356 36.8688 24.5356 35.2217V33.9547H24.3457L20.8643 35.6018C20.8643 38.0724 21.6872 40.0995 23.3329 41.7466C25.1053 43.5203 27.3841 44.4072 30.106 44.4072C32.8912 44.4072 35.17 43.5203 36.879 41.7466C38.5248 40.0362 39.3477 37.8823 39.3477 35.2217V16.4072H35.9928L34.537 19.7013Z" fill="#F7911E"/>
<path d="M47.1335 0L76.6311 2.59729L88.7846 21.8552L54.7928 20.6516L47.1335 0Z" fill="#F7911E"/>
<path d="M126.194 9.24878H115.054V9.37548C115.054 12.2262 116.256 13.6832 118.725 13.6832H123.599V29.647C123.599 31.8008 123.03 33.4479 121.89 34.6515C120.751 35.8551 119.105 36.4253 117.016 36.4253C114.927 36.4253 113.345 35.8551 112.205 34.7148C111.066 33.5746 110.496 31.9909 110.496 29.9637C110.496 29.2669 110.559 28.6967 110.623 28.19V27.9999H110.433C108.914 27.9999 107.774 28.2533 106.888 28.6967C106.002 29.2035 105.559 30.0271 105.559 31.104C105.559 32.9411 106.065 34.6515 107.078 36.1085C108.091 37.5655 109.483 38.7691 111.193 39.5927C112.902 40.4162 114.864 40.8596 117.016 40.8596C119.232 40.8596 121.194 40.3529 122.966 39.4026C124.739 38.4524 126.131 37.0587 127.081 35.4117C128.093 33.7013 128.537 31.8008 128.537 29.647V11.656C128.537 10.9592 128.283 10.3891 127.84 9.94561C127.46 9.50217 126.891 9.24878 126.194 9.24878Z" fill="black"/>
<path d="M142.716 17.7375C141.196 17.7375 139.741 17.9909 138.411 18.4344C137.082 18.8778 136.006 19.5113 135.183 20.2081C134.36 20.9683 133.917 21.7918 133.917 22.6154C133.917 23.1222 134.107 23.5656 134.487 24.009C134.867 24.4525 135.31 24.8326 135.879 25.0226L136.006 25.086L136.069 24.9593C137.335 22.7421 139.487 21.6018 142.399 21.6018C143.982 21.6018 145.248 21.9819 146.134 22.7421C147.02 23.5023 147.463 24.5792 147.463 25.9095V27.4932L147.526 27.5566C147.59 27.6199 147.653 27.6833 147.716 27.7466C146.071 26.4163 144.045 25.7828 141.766 25.7828C139.108 25.7828 136.955 26.4796 135.246 27.8733C133.537 29.267 132.714 31.1041 132.714 33.448C132.714 35.7285 133.537 37.5656 135.12 38.9593C136.702 40.2896 138.728 40.9864 141.26 40.9864C142.842 40.9864 144.298 40.733 145.501 40.1629C146.387 39.7828 147.21 39.1493 148.033 38.4525C147.97 38.5158 147.843 38.6425 147.78 38.7692L147.716 38.8326V41.0498H147.843C149.299 41.0498 150.375 40.7964 151.071 40.2262C151.768 39.6561 152.147 38.8326 152.147 37.629V25.7828C152.147 23.3122 151.261 21.2851 149.615 19.8914C147.97 18.4344 145.627 17.7375 142.716 17.7375ZM147.526 33.3846C147.526 34.5882 147.083 35.5385 146.134 36.2353C145.184 36.9321 143.855 37.2489 142.146 37.2489C140.627 37.2489 139.424 36.9321 138.601 36.2353C137.778 35.5385 137.335 34.5882 137.335 33.3846C137.335 32.181 137.778 31.1674 138.665 30.4706C139.551 29.7737 140.753 29.3937 142.273 29.3937C143.918 29.3937 145.248 29.7737 146.134 30.4706C147.083 31.2308 147.526 32.181 147.526 33.3846Z" fill="black"/>
<path d="M169.112 17.7375C167.466 17.7375 165.883 18.1176 164.491 18.8778C163.984 19.1312 163.605 19.638 163.161 19.9547C162.908 20.1448 162.592 20.3982 162.402 20.5882C162.085 20.905 161.642 21.095 161.326 21.4751C161.579 21.1584 161.769 20.905 161.959 20.7149L162.022 20.6516V17.7375H161.895C158.984 17.7375 157.528 19.0045 157.528 21.4751V40.9231H157.654C159.174 40.9231 160.313 40.6697 161.073 40.1629C161.832 39.6561 162.212 38.8326 162.212 37.7556V26.733C162.212 25.8461 162.465 25.0226 162.972 24.3258C163.478 23.5656 164.174 22.9955 165.06 22.552C165.947 22.1086 166.896 21.8552 167.909 21.8552C169.302 21.8552 170.441 22.2353 171.137 22.9955C171.897 23.7556 172.213 24.7692 172.213 26.0362V40.9231H172.34C173.859 40.9231 174.999 40.6697 175.695 40.1629C176.454 39.6561 176.834 38.8326 176.834 37.7556V25.5294C176.834 23.2489 176.138 21.3484 174.682 19.8914C173.416 18.4344 171.517 17.7375 169.112 17.7375Z" fill="black"/>
<path d="M196.584 32.2445H196.457V32.3711C196.457 33.6381 196.014 34.715 195.064 35.5386C194.115 36.3621 192.912 36.8055 191.456 36.8055C189.937 36.8055 188.734 36.4254 187.785 35.6653C186.899 34.9051 186.392 33.8915 186.392 32.6879V26.163C186.392 24.896 186.835 23.8191 187.785 23.0589C188.671 22.2354 189.874 21.8553 191.33 21.8553C192.786 21.8553 193.988 22.2988 194.938 23.1223C195.887 23.9458 196.33 25.0227 196.33 26.353V26.4797H196.457C196.584 26.4797 196.71 26.4797 196.773 26.4797C197.66 26.4797 198.483 26.2264 199.116 25.7829C199.812 25.2761 200.192 24.5793 200.192 23.6924C200.192 22.4888 199.812 21.4752 199.052 20.525C198.293 19.6381 197.217 18.9413 195.887 18.4345C194.558 17.9277 192.975 17.6743 191.266 17.6743C189.431 17.6743 187.785 18.0544 186.329 18.7512C184.873 19.4481 183.734 20.4616 182.974 21.7286C182.215 22.9956 181.771 24.4526 181.771 26.0363V32.8779C181.771 34.4616 182.151 35.8553 182.974 37.0589C183.797 38.2626 184.936 39.2128 186.392 39.9096C187.848 40.6064 189.494 40.9232 191.33 40.9232C193.039 40.9232 194.621 40.6698 195.951 40.163C197.343 39.6562 198.419 38.9594 199.179 38.0092C199.938 37.1223 200.318 36.0454 200.318 34.8417C200.318 33.9549 199.938 33.258 199.242 32.7512C198.546 32.3078 197.66 32.1178 196.584 32.2445Z" fill="black"/>
<path d="M213.105 17.7375C211.586 17.7375 210.13 17.9909 208.8 18.4344C207.471 18.8778 206.332 19.5113 205.572 20.2081C204.749 20.9683 204.306 21.7918 204.306 22.6154C204.306 23.1222 204.496 23.5656 204.876 24.009C205.256 24.4525 205.699 24.8326 206.268 25.0226L206.395 25.086L206.458 24.9593C207.724 22.7421 209.876 21.6018 212.788 21.6018C214.371 21.6018 215.637 21.9819 216.523 22.7421C217.409 23.5023 217.852 24.5792 217.852 25.9095V27.4932L217.916 27.5566C217.979 27.6199 218.042 27.6832 218.169 27.7466C216.523 26.4163 214.497 25.7828 212.219 25.7828C209.56 25.7828 207.408 26.4796 205.699 27.8733C203.99 29.267 203.167 31.1041 203.167 33.448C203.167 35.7285 203.99 37.5656 205.572 38.9593C207.155 40.2896 209.244 40.9864 211.712 40.9864C213.295 40.9864 214.751 40.733 215.953 40.1629C216.839 39.7194 217.726 39.1493 218.485 38.3891C218.422 38.5158 218.295 38.5792 218.169 38.7059L218.105 38.7692V40.9864H218.232C219.688 40.9864 220.764 40.733 221.46 40.1629C222.157 39.5928 222.536 38.7692 222.536 37.5656V25.7828C222.536 23.3122 221.714 21.3484 220.004 19.8914C218.359 18.4344 216.017 17.7375 213.105 17.7375ZM217.979 33.3846C217.979 34.5882 217.536 35.5385 216.586 36.2353C215.637 36.9321 214.307 37.2489 212.598 37.2489C211.079 37.2489 209.876 36.9321 209.054 36.2353C208.167 35.5385 207.788 34.6516 207.788 33.3846C207.788 32.181 208.231 31.1674 209.117 30.4706C210.003 29.7737 211.206 29.3937 212.725 29.3937C214.371 29.3937 215.637 29.7737 216.586 30.4706C217.472 31.2308 217.979 32.181 217.979 33.3846Z" fill="black"/>
<path d="M238.488 17.7375C235.956 17.7375 233.804 18.8145 232.095 20.9683C232.158 20.8416 232.285 20.7149 232.411 20.5882L232.474 20.5249V17.7375H232.348C229.436 17.7375 227.98 19.0045 227.98 21.4751V40.9231H228.107C229.626 40.9231 230.765 40.6697 231.525 40.1629C232.285 39.6561 232.664 38.8326 232.664 37.7556V26.733C232.664 25.3394 233.171 24.1991 234.247 23.2489C235.323 22.2986 236.652 21.8552 238.298 21.8552C239.627 21.8552 240.703 22.0452 241.526 22.4887L241.653 22.552L241.716 22.4253C242.033 21.9819 242.223 21.4118 242.223 20.7149C242.223 19.828 241.906 19.1312 241.273 18.4977C240.577 17.9909 239.627 17.7375 238.488 17.7375Z" fill="black"/>
<path d="M258.744 20.3348L258.807 20.4615C258.997 20.6516 259.124 20.8416 259.313 21.0317C258.491 20.0814 257.604 19.3213 256.592 18.7511C255.389 18.0543 253.996 17.7375 252.414 17.7375C250.831 17.7375 249.375 18.0543 248.046 18.7511C246.717 19.448 245.704 20.3982 244.881 21.5385C244.122 22.7421 243.678 24.1357 243.678 25.6561V32.6244C243.678 34.1448 244.058 35.5385 244.818 36.7421C245.577 37.9457 246.654 38.8326 247.983 39.5294C249.312 40.1629 250.831 40.543 252.477 40.543C253.743 40.543 255.009 40.2262 256.338 39.7194C257.478 39.2127 258.427 38.5792 259.25 37.8823C259.06 38.0724 258.807 38.3258 258.554 38.5792L258.491 38.6425V40.9231C258.491 44.3439 256.781 46.0543 253.3 46.0543C251.654 46.0543 250.388 45.6742 249.439 44.914C248.489 44.1538 248.046 43.1403 247.983 41.8733V41.7466H247.856C245.641 41.7466 244.501 42.5701 244.501 44.2805C244.501 45.2941 244.881 46.3077 245.704 47.1312C246.464 47.9547 247.54 48.6516 248.869 49.1584C250.198 49.6651 251.717 49.9185 253.363 49.9185C255.262 49.9185 256.971 49.5385 258.491 48.7149C260.01 47.9547 261.212 46.8145 262.035 45.3575C262.858 43.9004 263.301 42.2534 263.301 40.4163V17.7375H263.175C260.2 17.7375 258.744 18.6244 258.744 20.3348ZM258.554 25.6561V32.5611C258.554 33.638 258.047 34.4615 257.098 35.2217C256.148 35.9819 254.882 36.362 253.427 36.362C251.844 36.362 250.641 35.9819 249.755 35.2851C248.869 34.5882 248.489 33.5747 248.489 32.3077V25.8461C248.489 24.5792 248.932 23.5656 249.755 22.8688C250.641 22.1719 251.907 21.7918 253.553 21.7918C255.009 21.7918 256.212 22.1719 257.161 22.9321C258.047 23.6923 258.554 24.5792 258.554 25.6561Z" fill="black"/>
<path d="M285.899 21.7918C285.076 20.5249 283.874 19.5113 282.355 18.8145C280.835 18.0543 279.126 17.7375 277.227 17.7375C275.328 17.7375 273.619 18.1176 272.1 18.8145C270.581 19.5747 269.441 20.5249 268.619 21.7918C267.796 23.0588 267.353 24.4525 267.353 25.9728V32.9412C267.353 34.4615 267.796 35.7918 268.619 37.0588C269.505 38.2624 270.644 39.2127 272.163 39.9095C273.682 40.6063 275.328 40.9231 277.227 40.9231C279.126 40.9231 280.772 40.6063 282.291 39.9095C283.81 39.2127 285.013 38.2624 285.836 37.0588C286.722 35.8552 287.102 34.4615 287.102 32.9412V25.9728C287.229 24.4525 286.785 23.0588 285.899 21.7918ZM277.291 36.8054C275.645 36.8054 274.379 36.4253 273.429 35.6652C272.48 34.905 272.037 33.9547 272.037 32.6878V26.1629C272.037 24.8326 272.543 23.819 273.429 22.9955C274.379 22.1719 275.708 21.7918 277.291 21.7918C278.873 21.7918 280.202 22.1719 281.152 22.9955C282.101 23.819 282.544 24.8326 282.544 26.1629V32.6878C282.544 33.9547 282.101 34.905 281.152 35.6652C280.266 36.4253 278.936 36.8054 277.291 36.8054Z" fill="black"/>
</g>
<defs>
<clipPath id="clip0_832_73077">
<rect width="287" height="56" fill="white" transform="translate(0.228516)"/>
</clipPath>
</defs>
</svg>
