<svg width="24" height="24" viewBox="0 0 24 24" fill="none" xmlns="http://www.w3.org/2000/svg">
<path d="M3.16992 7.43994L11.9999 12.5499L20.7699 7.46994M11.9999 21.6099V12.5399" stroke="#3A3A3A" stroke-width="1.5" stroke-linecap="round" stroke-linejoin="round"/>
<path d="M9.92989 2.48L4.58989 5.45C3.37989 6.12 2.38989 7.8 2.38989 9.18V14.83C2.38989 16.21 3.37989 17.89 4.58989 18.56L9.92989 21.53C11.0699 22.16 12.9399 22.16 14.0799 21.53L19.4199 18.56C20.6299 17.89 21.6199 16.21 21.6199 14.83V9.18C21.6199 7.8 20.6299 6.12 19.4199 5.45L14.0799 2.48C12.9299 1.84 11.0699 1.84 9.92989 2.48Z" stroke="#3A3A3A" stroke-width="1.5" stroke-linecap="round" stroke-linejoin="round"/>
<path d="M17 13.2401V9.5801L7.51001 4.1001" stroke="#3A3A3A" stroke-width="1.5" stroke-linecap="round" stroke-linejoin="round"/>
</svg>
