<svg width="23" height="22" viewBox="0 0 23 22" fill="none" xmlns="http://www.w3.org/2000/svg">
<path d="M12.42 1.25984L18.93 4.76984C19.69 5.17984 19.69 6.34984 18.93 6.75984L12.42 10.2698C11.84 10.5798 11.16 10.5798 10.58 10.2698L4.07 6.75984C3.31 6.34984 3.31 5.17984 4.07 4.76984L10.58 1.25984C11.16 0.949844 11.84 0.949844 12.42 1.25984ZM3.11 9.12984L9.16 12.1598C9.91 12.5398 10.39 13.3098 10.39 14.1498V19.8698C10.39 20.6998 9.52 21.2298 8.78 20.8598L2.73 17.8298C2.36136 17.6439 2.05136 17.3596 1.83428 17.0084C1.6172 16.6571 1.5015 16.2527 1.5 15.8398V10.1198C1.5 9.28984 2.37 8.75984 3.11 9.12984ZM19.89 9.12984L13.84 12.1598C13.09 12.5398 12.61 13.3098 12.61 14.1498V19.8698C12.61 20.6998 13.48 21.2298 14.22 20.8598L20.27 17.8298C21.02 17.4498 21.5 16.6798 21.5 15.8398V10.1198C21.5 9.28984 20.63 8.75984 19.89 9.12984Z" stroke="#3A3A3A" stroke-width="1.5" stroke-linecap="round" stroke-linejoin="round"/>
</svg>
